<?xml version="1.0" encoding="utf-8"?>
<!-- Generator: Adobe Illustrator 19.2.0, SVG Export Plug-In . SVG Version: 6.00 Build 0)  -->
<svg version="1.1" id="Layer_1" xmlns="http://www.w3.org/2000/svg" xmlns:xlink="http://www.w3.org/1999/xlink" x="0px" y="0px"
	 viewBox="0 0 52.9 50.7" style="enable-background:new 0 0 52.9 50.7;" xml:space="preserve">
<style type="text/css">
	.st0{clip-path:url(#SVGID_2_);}
</style>
<g>
	<defs>
		<path id="SVGID_1_" d="M44.7,5.8l7.8,21.7c0.6,1.7,0.3,3.5-0.8,4.9L39.2,48.7c-1.1,1.4-2.8,2.1-4.5,2L11.8,49
			c-2.1-0.2-3.9-1.6-4.5-3.6l-7-21.7c-0.5-1.5-0.2-3.2,0.7-4.6l11.9-17c1.1-1.5,2.9-2.4,4.8-2.2l22.8,2.4
			C42.4,2.6,44.1,3.9,44.7,5.8z"/>
	</defs>
	<clipPath id="SVGID_2_">
		<use xlink:href="#SVGID_1_"  style="overflow:visible;"/>
	</clipPath>
	<g id="zgNz0D_4_" class="st0">
		
			<image style="overflow:visible;" width="900" height="1181" id="zgNz0D_5_" xlink:href="3A047C2A051BE53A.jpg"  transform="matrix(-4.736887e-02 -0.1918 0.1918 -4.736887e-02 -66.5777 139.8526)">
		</image>
	</g>
</g>
</svg>
