<?xml version="1.0" encoding="utf-8"?>
<!-- Generator: Adobe Illustrator 19.2.0, SVG Export Plug-In . SVG Version: 6.00 Build 0)  -->
<svg version="1.1" id="Layer_1" xmlns="http://www.w3.org/2000/svg" xmlns:xlink="http://www.w3.org/1999/xlink" x="0px" y="0px"
	 viewBox="0 0 97.6 85" style="enable-background:new 0 0 97.6 85;" xml:space="preserve">
<style type="text/css">
	.st0{fill:none;stroke:#FFFFFF;stroke-width:3.763;stroke-miterlimit:10;}
	.st1{fill:none;stroke:#FFFFFF;stroke-width:3.763;stroke-linejoin:bevel;stroke-miterlimit:10;}
	.st2{fill:none;stroke:#000000;stroke-width:3.763;stroke-linejoin:round;stroke-miterlimit:10;}
</style>
<g>
	<g>
		<g>
			<polygon class="st0" points="2.2,42.5 25.1,1.9 71.7,1.9 95.4,42.5 72.5,83.1 25.9,83.1 			"/>
			<polyline class="st1" points="33.9,17 2.2,42.5 34.1,68.4 			"/>
			<polyline class="st1" points="56.1,29.6 78.5,42.5 63.7,51.1 			"/>
			<polyline class="st1" points="34.1,51.8 33.9,17 44.2,22.9 			"/>
			<polyline class="st1" points="56,55.6 34.1,68.4 34.1,63.8 			"/>
			<polygon class="st1" points="33.9,17 25.1,1.9 71.7,1.9 			"/>
			<polygon class="st1" points="2.2,42.5 25.1,1.9 33.9,17 			"/>
			<polygon class="st1" points="72.5,83.1 78.5,42.5 95.4,42.5 			"/>
			<polygon class="st1" points="25.9,83.1 34.1,68.4 72.5,83.1 			"/>
			<polygon class="st1" points="78.5,42.5 71.7,1.9 95.4,42.5 			"/>
			<polygon class="st1" points="25.9,83.1 2.2,42.5 34.1,68.4 			"/>
			<polyline class="st1" points="56,55.6 34.1,68.4 72.5,83.1 78.5,42.5 63.7,51.1 			"/>
			<polyline class="st1" points="56.1,29.6 78.5,42.5 71.7,1.9 33.9,17 44.2,22.9 			"/>
		</g>
	</g>
	<g>
		<path class="st2" d="M60,63.8l-2.8-8.1H40.4l-2.8,8.1h-7.8l14.9-42.4h8.4l10.4,29.7l4.5,12.7H60z M48.8,30.8l-6,17.9h12.1
			L48.8,30.8z"/>
	</g>
</g>
</svg>
